# xmcd CD database file
#
# Track frame offsets:
#	150
#	21278
#	39109
#	62828
#	82728
#	100871
#	132063
#	149212
#	166265
#	186402
#
# Disc length: 2778 seconds
#
# Revision: 0
# Processed by: cddbd v1.5.2PL0 Copyright (c) Steve Scherf et al.
# Submitted via: CDex 1.70beta2
#
DISCID=810ad80a
DTITLE=The Downtown Alligators - Hey mama, we got some blues for you
DYEAR=2008
DGENRE=Blues
TTITLE0=Cut You Loose
TTITLE1=Kiddeo
TTITLE2=Midnight Train
TTITLE3=Close Together
TTITLE4=Tired Of Trying
TTITLE5=Full Time Lover
TTITLE6=Hot Little Mama
TTITLE7=I'm shaking
TTITLE8=She's About A Mover
TTITLE9=Lonely Aveneu
EXTD=YEAR: 2008
EXTT0=
EXTT1=
EXTT2=
EXTT3=
EXTT4=
EXTT5=
EXTT6=
EXTT7=
EXTT8=
EXTT9=
PLAYORDER=
